<svg width="800" height="800" viewBox="0 0 800 800" fill="none" xmlns="http://www.w3.org/2000/svg">
<path d="M233.333 133.333C233.333 179.357 196.024 216.667 150 216.667C103.976 216.667 66.6666 179.357 66.6666 133.333C66.6666 87.3097 103.976 50 150 50C196.024 50 233.333 87.3097 233.333 133.333Z" fill="#FF7373"/>
<path d="M483.333 133.333C483.333 179.357 446.023 216.667 400 216.667C353.977 216.667 316.667 179.357 316.667 133.333C316.667 87.3097 353.977 50 400 50C446.023 50 483.333 87.3097 483.333 133.333Z" fill="#FFB366"/>
<path d="M650 216.667C696.023 216.667 733.333 179.357 733.333 133.333C733.333 87.3097 696.023 50 650 50C603.977 50 566.667 87.3097 566.667 133.333C566.667 179.357 603.977 216.667 650 216.667Z" fill="#2EE6D6"/>
<path d="M233.333 400C233.333 446.023 196.024 483.333 150 483.333C103.976 483.333 66.6666 446.023 66.6666 400C66.6666 353.977 103.976 316.667 150 316.667C196.024 316.667 233.333 353.977 233.333 400Z" fill="#48AFF0"/>
<path d="M400 483.333C446.023 483.333 483.333 446.023 483.333 400C483.333 353.977 446.023 316.667 400 316.667C353.977 316.667 316.667 353.977 316.667 400C316.667 446.023 353.977 483.333 400 483.333Z" fill="#3DCC91"/>
<path d="M733.333 400C733.333 446.023 696.023 483.333 650 483.333C603.977 483.333 566.667 446.023 566.667 400C566.667 353.977 603.977 316.667 650 316.667C696.023 316.667 733.333 353.977 733.333 400Z" fill="#C274C2"/>
<path d="M150 750C196.024 750 233.333 712.69 233.333 666.667C233.333 620.643 196.024 583.333 150 583.333C103.976 583.333 66.6666 620.643 66.6666 666.667C66.6666 712.69 103.976 750 150 750Z" fill="#C99765"/>
<path d="M483.333 666.667C483.333 712.69 446.023 750 400 750C353.977 750 316.667 712.69 316.667 666.667C316.667 620.643 353.977 583.333 400 583.333C446.023 583.333 483.333 620.643 483.333 666.667Z" fill="#FF66A1"/>
<path d="M650 750C696.023 750 733.333 712.69 733.333 666.667C733.333 620.643 696.023 583.333 650 583.333C603.977 583.333 566.667 620.643 566.667 666.667C566.667 712.69 603.977 750 650 750Z" fill="#FF6E4A"/>
</svg>
